<svg id="Group_106486" data-name="Group 106486" xmlns="http://www.w3.org/2000/svg" width="76" height="30" viewBox="0 0 76 30">
  <g id="Group_14617" data-name="Group 14617">
    <path id="Path_5852" data-name="Path 5852" d="M103.1.9h17.624V7.66H110.081v4.26h8.7v6.76h-8.7v4.488h10.643v6.76H103.1Z" transform="translate(-44.724 -0.442)" fill="#fff"/>
    <path id="Path_5853" data-name="Path 5853" d="M74.935,11.748A6.668,6.668,0,0,0,73.5,8.055a4.233,4.233,0,0,0-2.461-.966,3.191,3.191,0,0,0-2.976,2.273,16.154,16.154,0,0,0-.973,6.08c0,5.114,1.373,7.784,4.063,7.784,2.06,0,3.433-1.818,3.777-5h6.809a15.782,15.782,0,0,1-2.976,8.693,9.106,9.106,0,0,1-7.21,3.182,11.523,11.523,0,0,1-6.18-1.648,10.553,10.553,0,0,1-3.948-5.114A20.934,20.934,0,0,1,60,15.441a22.094,22.094,0,0,1,1.545-8.693,13.147,13.147,0,0,1,4.12-5.114A10.354,10.354,0,0,1,70.758.1c3.777.114,6.58,1.42,8.125,3.466A15.907,15.907,0,0,1,81.63,11.8H74.935Z" transform="translate(-26.055 -0.1)" fill="#fff"/>
    <rect id="Rectangle_7929" data-name="Rectangle 7929" width="6.981" height="29.027" transform="translate(24.33 0.458)" fill="#fff"/>
    <path id="Path_5854" data-name="Path 5854" d="M0,.9H6.294l7.439,15.962V.9h6.752V29.927H13.848L6.58,14.192l-.057,6.817.057,8.918H0Z" transform="translate(0 -0.442)" fill="#fff"/>
    <rect id="Rectangle_7930" data-name="Rectangle 7930" width="6.409" height="6.409" transform="translate(55.469 11.682)" fill="#61b5ed"/>
    <rect id="Rectangle_7931" data-name="Rectangle 7931" width="6.409" height="6.409" transform="translate(31.251 11.682)" fill="#61b5ed"/>
    <rect id="Rectangle_7932" data-name="Rectangle 7932" width="6.409" height="6.409" transform="translate(17.979 11.682)" fill="#61b5ed"/>
  </g>
</svg>
